<svg data-v-07467e39="" width="28" height="22" viewBox="0 0 28 22" fill="none" xmlns="http://www.w3.org/2000/svg"><path data-v-07467e39="" d="M1.90909 21.005H6.36364V10.1868L0 5.41406V19.0959C0 20.1522 0.855909 21.005 1.90909 21.005Z" fill="#4285F4"></path> <path data-v-07467e39="" d="M21.6365 21.005H26.091C27.1474 21.005 28.0001 20.1491 28.0001 19.0959V5.41406L21.6365 10.1868" fill="#34A853"></path> <path data-v-07467e39="" d="M21.6365 1.91451V10.1872L28.0001 5.41451V2.86905C28.0001 0.508143 25.3051 -0.837766 23.4183 0.578143" fill="#FBBC04"></path> <path data-v-07467e39="" d="M6.36353 10.1868V1.91406L13.9999 7.64134L21.6363 1.91406V10.1868L13.9999 15.9141" fill="#EA4335"></path> <path data-v-07467e39="" d="M0 2.86905V5.41451L6.36364 10.1872V1.91451L4.58182 0.578143C2.69182 -0.837766 0 0.508143 0 2.86905Z" fill="#C5221F"></path></svg>