<svg width="24" height="24" viewBox="0 0 24 24" fill="none" xmlns="http://www.w3.org/2000/svg">
    <path d="M1.00683 14.1576C1.00683 12.1974 1.01355 10.2372 1.00011 8.27707C0.993392 7.55455 1.2957 7.03942 1.91376 6.67147C4.92344 4.87855 7.93311 3.07894 10.9361 1.27933C11.5541 0.91138 12.1655 0.90469 12.7835 1.27264C15.8066 3.07894 18.823 4.88524 21.8461 6.69154C22.4373 7.04611 22.7262 7.55455 22.7262 8.24362C22.7195 12.1573 22.7262 16.0709 22.7262 19.9846C22.7262 21.4697 21.6916 22.5 20.1935 22.5C18.9305 22.5 17.6608 22.5 16.3978 22.5C15.3565 22.5 14.6847 21.831 14.678 20.7941C14.678 19.4025 14.678 18.0043 14.678 16.6128C14.678 15.9973 14.3623 15.6896 13.7509 15.6896C12.4879 15.6896 11.2182 15.6896 9.95524 15.6896C9.35733 15.6896 9.0483 16.004 9.0483 16.6061C9.0483 17.9976 9.0483 19.3958 9.0483 20.7874C9.0483 21.8377 8.3765 22.5 7.31505 22.5C6.05206 22.5 4.78236 22.5 3.51937 22.5C2.0414 22.5 1.00683 21.4631 1.00011 19.9979C1.00011 18.0445 1.00683 16.1044 1.00683 14.1576Z" fill="none" stroke="currentColor"/>
</svg>
