<svg width="24" height="24" viewBox="0 0 24 24" fill="none" xmlns="http://www.w3.org/2000/svg">
<path d="M10.2188 20.8672C11.6409 20.8672 13.0496 20.8672 14.4784 20.8672C14.4584 21.6265 14.1446 22.2259 13.517 22.6255C12.7892 23.0917 12.0214 23.1117 11.2736 22.6788C10.586 22.2858 10.2455 21.6731 10.2188 20.8672Z" fill="white"/>
<path d="M12.0015 19.0171H5.51855H4.61722C4.61722 19.0171 4.63057 18.9971 4.65728 18.9572C4.85757 18.7574 5.16469 18.4643 5.51187 18.1779C5.52523 18.1646 5.53858 18.1579 5.55193 18.1446V18.138C6.09274 17.6651 6.05268 17.2921 6.05268 17.2921C6.06603 17.1855 6.07271 17.0657 6.06603 16.9258C6.046 14.901 6.05268 12.843 6.05935 11.0381C6.07271 8.34063 7.78858 6.03616 10.3257 5.30352C10.8732 5.14367 11.434 5.06375 11.9948 5.06375V2C11.7678 2 11.5542 2.17983 11.5475 2.39296C11.5341 2.65937 11.5408 2.93245 11.5408 3.21218C11.5408 3.34539 11.5408 3.47193 11.5408 3.60514V4.09134L11.0601 4.19125L10.9332 4.21789C10.8464 4.23787 10.773 4.25119 10.6996 4.26451C7.54155 4.85728 5.20475 7.60133 5.15134 10.7916C5.12463 12.2902 5.13131 13.8154 5.13799 15.2873C5.13799 15.7469 5.14466 16.2065 5.14466 16.666C5.14466 17.0124 5.02449 17.2921 4.77745 17.5319C4.49704 17.8049 4.21662 18.0913 3.94288 18.3644C3.7092 18.5975 3.46885 18.844 3.22182 19.0771C2.94808 19.3501 2.98146 19.5033 3.04155 19.6565C3.10831 19.8097 3.19511 19.9496 3.58235 19.9496C6.3865 19.9496 9.19066 19.9496 11.9948 19.9496V19.0171H12.0015Z" fill="white"/>
<path d="M12.0015 19.0171H18.4844H19.3857C19.3857 19.0171 19.3724 18.9971 19.3457 18.9572C19.1454 18.7574 18.8383 18.4643 18.4911 18.1779C18.4777 18.1646 18.4644 18.1579 18.451 18.1446V18.138C17.9102 17.6651 17.9503 17.2921 17.9503 17.2921C17.9369 17.1855 17.9302 17.0657 17.9369 16.9258C17.957 14.901 17.9503 12.843 17.9436 11.0381C17.9302 8.34063 16.2144 6.03616 13.6773 5.30352C13.1298 5.14367 12.569 5.06375 12.0081 5.06375V2C12.2351 2 12.4488 2.17983 12.4555 2.39296C12.4688 2.65937 12.4621 2.93245 12.4621 3.21218C12.4621 3.34539 12.4621 3.47193 12.4621 3.60514V4.09134L12.9429 4.19125L13.0697 4.21789C13.1565 4.23787 13.23 4.25119 13.3034 4.26451C16.4681 4.85728 18.8116 7.60133 18.8583 10.7916C18.885 12.2902 18.8783 13.8154 18.8716 15.2873C18.8716 15.7469 18.865 16.2065 18.865 16.666C18.865 17.0124 18.9851 17.2921 19.2322 17.5319C19.5126 17.8049 19.793 18.0913 20.0667 18.3644C20.3004 18.5975 20.5408 18.844 20.7878 19.0771C21.0616 19.3501 21.0282 19.5033 20.9681 19.6565C20.9013 19.8097 20.8145 19.9496 20.4273 19.9496C17.6231 19.9496 14.819 19.9496 12.0148 19.9496V19.0171H12.0015Z" fill="white"/>
</svg>
