<svg data-v-07467e39="" width="27" height="27" viewBox="0 0 27 27" fill="none" xmlns="http://www.w3.org/2000/svg"><path data-v-07467e39="" d="M10.319 0.636813L10.6164 1.84144C9.44429 2.13113 8.32246 2.5956 7.28861 3.21924L6.65242 2.15389C7.79039 1.46475 9.0268 0.953176 10.319 0.636813ZM16.681 0.636813L16.3836 1.84144C17.5557 2.13113 18.6775 2.5956 19.7114 3.21924L20.3551 2.15389C19.2141 1.46536 17.9753 0.953846 16.681 0.636813ZM2.15388 6.64867C1.46538 7.78831 0.953857 9.02586 0.636797 10.319L1.84143 10.6164C2.13111 9.4443 2.59558 8.32247 3.21922 7.28863L2.15388 6.64867ZM1.49133 13.5C1.49124 12.8976 1.53654 12.2961 1.62685 11.7006L0.399636 11.5124C0.200121 12.8287 0.200121 14.1676 0.399636 15.4839L1.62685 15.2994C1.53668 14.7038 1.49138 14.1024 1.49133 13.5ZM20.3476 24.8423L19.7114 23.7808C18.6791 24.405 17.5585 24.8695 16.3873 25.1586L16.6847 26.3632C17.9754 26.0438 19.2103 25.531 20.3476 24.8423ZM25.5086 13.5C25.5086 14.1024 25.4633 14.7038 25.3731 15.2994L26.6003 15.4839C26.7998 14.1676 26.7998 12.8287 26.6003 11.5124L25.3731 11.7006C25.4634 12.2961 25.5087 12.8976 25.5086 13.5ZM26.3632 16.6772L25.1585 16.3798C24.8695 17.5533 24.405 18.6765 23.7807 19.7114L24.8461 20.3513C25.5353 19.2107 26.0468 17.9718 26.3632 16.6772ZM15.2994 25.3731C14.1066 25.5539 12.8934 25.5539 11.7006 25.3731L11.5161 26.6003C12.8312 26.7999 14.1688 26.7999 15.4839 26.6003L15.2994 25.3731ZM23.1671 20.6224C22.4516 21.5926 21.5937 22.4493 20.6224 23.1634L21.3602 24.1647C22.4301 23.3771 23.3766 22.4344 24.1685 21.3677L23.1671 20.6224ZM20.6224 3.83285C21.5938 4.54829 22.4517 5.4062 23.1671 6.37763L24.1685 5.63226C23.3794 4.56459 22.4354 3.62061 21.3677 2.8315L20.6224 3.83285ZM3.83283 6.37763C4.54827 5.4062 5.40619 4.54829 6.37761 3.83285L5.63225 2.8315C4.56457 3.62061 3.6206 4.56459 2.83148 5.63226L3.83283 6.37763ZM24.8461 6.64867L23.7807 7.28863C24.405 8.32084 24.8695 9.44152 25.1585 10.6127L26.3632 10.3153C26.0461 9.02329 25.5346 7.78698 24.8461 6.64867ZM11.7006 1.62687C12.8934 1.44615 14.1066 1.44615 15.2994 1.62687L15.4839 0.399651C14.1688 0.200116 12.8312 0.200116 11.5161 0.399651L11.7006 1.62687ZM4.46903 24.496L1.90542 25.0908L2.50397 22.5272L1.29558 22.2449L0.697028 24.8085C0.659578 24.9674 0.653831 25.1322 0.680115 25.2933C0.7064 25.4545 0.764201 25.6089 0.850211 25.7477C0.936222 25.8865 1.04876 26.007 1.18137 26.1023C1.31399 26.1975 1.46409 26.2657 1.62309 26.303C1.80903 26.3444 2.00181 26.3444 2.18776 26.303L4.75136 25.7119L4.46903 24.496ZM1.55156 21.1381L2.76372 21.4167L3.17781 19.6398C2.5731 18.6255 2.12271 17.5268 1.84143 16.3798L0.636797 16.6772C0.907757 17.7751 1.31763 18.8339 1.85648 19.8281L1.55156 21.1381ZM7.34884 23.8259L5.57201 24.24L5.85435 25.4522L7.16062 25.1473C8.15403 25.6877 9.21307 26.0977 10.3115 26.367L10.6089 25.1623C9.4655 24.8774 8.37068 24.4245 7.36014 23.8184L7.34884 23.8259ZM13.5 2.73362C7.55212 2.73739 2.73737 7.55967 2.73737 13.5038C2.74065 15.5283 3.31332 17.5112 4.38997 19.2258L3.35474 23.6452L7.77046 22.61C12.8036 25.7759 19.4516 24.2664 22.6175 19.2371C25.7834 14.2077 24.2777 7.55967 19.2483 4.38999C17.5266 3.30725 15.5339 2.73307 13.5 2.73362Z" fill="white"></path></svg>