<svg xmlns="http://www.w3.org/2000/svg" width="30" height="30" viewBox="0 0 2362 2362">
  <defs>
    <style>
      .cls-1 {
        fill: #fff;
      }

      .cls-1, .cls-2 {
        fill-rule: evenodd;
      }

      .cls-2 {
        fill: #ed0505;
      }
    </style>
  </defs>
  <path id="Rectangle_2_copy_3" data-name="Rectangle 2 copy 3" class="cls-1" d="M1974.18,773.151V780l-90.78,90V812.308C1883.4,663.832,1714.81,533,1600.08,533H759.316C644.588,533,476,663.832,476,812.308V1044.73l0.27,519.85L237.758,994.561l147.457,20.8V823.151s-29.62-149.986,90.57-273.043C597.3,425.694,743.016,442.215,743.016,442.215H1616.38s145.72-16.521,267.23,107.893C2003.8,673.165,1974.18,773.151,1974.18,773.151Z"/>
  <path id="Rectangle_2_copy_4" data-name="Rectangle 2 copy 4" class="cls-1" d="M389.462,1699.37v-6.85l90.785-90v57.69c0,148.48,168.588,279.31,283.317,279.31H1604.33c114.73,0,283.31-130.83,283.31-279.31V1427.79l-0.27-519.85,238.52,570.02-147.46-20.81v192.22s29.62,149.98-90.57,273.04c-121.51,124.41-267.23,107.89-267.23,107.89H747.263s-145.717,16.52-267.231-107.89C359.842,1799.35,389.462,1699.37,389.462,1699.37Z"/>
  <path class="cls-2" d="M1191.5,1661C963.13,1661,778,1475.87,778,1247.5S963.13,834,1191.5,834,1605,1019.13,1605,1247.5,1419.87,1661,1191.5,1661Zm-0.12-689.5c-152.16,0-275.505,123.342-275.505,275.5s123.345,275.5,275.505,275.5,275.5-123.35,275.5-275.5S1343.53,971.5,1191.38,971.5Z"/>
</svg>
