      <svg data-v-07467e39="" width="27" height="27" viewBox="0 0 27 27" fill="none"
                                xmlns="http://www.w3.org/2000/svg">
                                <path data-v-07467e39="" fill-rule="evenodd" clip-rule="evenodd"
                                    d="M22.775 4.05938C20.2906 1.575 16.9781 0.25 13.5 0.25C6.2125 0.25 0.25 6.2125 0.25 13.5C0.25 15.8188 0.91251 18.1375 2.07189 20.125L0.25 26.75L7.20627 24.9281C9.19377 25.9219 11.3469 26.5844 13.5 26.5844C20.7875 26.5844 26.75 20.6219 26.75 13.3344C26.75 9.85625 25.2594 6.54375 22.775 4.05938ZM13.5 24.4313C11.5125 24.4313 9.52501 23.9344 7.86876 22.9406L7.53749 22.775L3.39686 23.9344L4.55626 19.9594L4.22499 19.4625C3.06561 17.6406 2.56874 15.6531 2.56874 13.6656C2.56874 7.70313 7.5375 2.73438 13.5 2.73438C16.4813 2.73438 19.1313 3.89375 21.2844 5.88125C23.4375 8.03437 24.4313 10.6844 24.4313 13.6656C24.4313 19.4625 19.6281 24.4313 13.5 24.4313ZM19.4625 16.15C19.1313 15.9844 17.475 15.1562 17.1438 15.1562C16.8125 14.9906 16.6469 14.9906 16.4812 15.3219C16.3156 15.6531 15.6531 16.3156 15.4875 16.6469C15.3219 16.8125 15.1562 16.8125 14.825 16.8125C14.4937 16.6469 13.5 16.3156 12.175 15.1562C11.1813 14.3281 10.5188 13.1688 10.3531 12.8375C10.1875 12.5063 10.3531 12.3406 10.5188 12.175C10.6844 12.0094 10.85 11.8437 11.0156 11.6781C11.1812 11.5125 11.1813 11.3469 11.3469 11.1813C11.5125 11.0156 11.3469 10.85 11.3469 10.6844C11.3469 10.5188 10.6844 8.8625 10.3531 8.2C10.1875 7.70313 9.85627 7.70312 9.69065 7.70312C9.52502 7.70312 9.35935 7.70312 9.0281 7.70312C8.86248 7.70312 8.53123 7.70312 8.19998 8.03437C7.86873 8.36562 7.04064 9.19375 7.04064 10.85C7.04064 12.5062 8.19999 13.9969 8.36561 14.3281C8.53124 14.4937 10.6844 17.9719 13.9969 19.2969C16.8125 20.4562 17.3094 20.125 17.9719 20.125C18.6344 20.125 19.9594 19.2969 20.125 18.6344C20.4562 17.8063 20.4563 17.1438 20.2906 17.1438C20.125 16.3156 19.7938 16.3156 19.4625 16.15Z"
                                    fill="white"></path>
                            </svg>